# xmcd CD database file
# Copyright (C) 1997 Ti Kan
# 
# Track frame offsets:
#     150
#     16072
#     29900
#     45355
#     62487
#     76442
#     92707
#     108120
#     121552
#     137325
#     152577
#     166377
#     180305
#     195045
# 
# Disc length: 2822 seconds
# 
# Revision: 1
# Processed by: cddbd v1.4b41PL1 Copyright (c) Steve Scherf et al.
# Submitted via: DiscPlay 4.0.4
# 
DISCID=940b040e
DTITLE=Tchan -   o Tchan do Brasil
DYEAR=1900
DGENRE=
TTITLE0=Ralando o Tchan (A Dan a do Ventre)
TTITLE1=Bambol 
TTITLE2=M o Boba
TTITLE3=N ga V 
TTITLE4=Rock do Tchan
TTITLE5=Tr s, Tr s Passar 
TTITLE6=Dan a do P e, P e
TTITLE7=Disque Tchan (Al ,   Tchan)
TTITLE8=Pot-Pourri(Sambas da Bahia)
TTITLE9=I Love You
TTITLE10=De Bem com a Vida
TTITLE11=Arrasta-P 
TTITLE12=Simbora,Nen m (Olha a Lua, Alah)
TTITLE13=Tarde de Domingo
EXTD=
EXTT0=\n
EXTT1=\n
EXTT2=
EXTT3=\n
EXTT4=\n
EXTT5=\n
EXTT6=\n
EXTT7=\n
EXTT8=Pot-Pourri)(Sambas da Bahia]\n.Chicoinho Queimado\n.Estrela do Mar\n.M
EXTT8=eu Er \n
EXTT9=\n
EXTT10=\n
EXTT11=\n
EXTT12=\n
EXTT13=\n
PLAYORDER=
